name rise44.8762peak52.3436fall86.788.mot
datacolumns 19
datarows 35
range 2.33332000000000 2.38999400000000
endheader
time	ground_force1_vx	ground_force1_vy	ground_force1_vz	ground_force1_px	ground_force1_py	ground_force1_pz	ground_force2_vx	ground_force2_vy	ground_force2_vz	ground_force2_px	ground_force2_py	ground_force2_pz	ground_torque1_x	ground_torque1_y	ground_torque1_z	ground_torque2_x	ground_torque2_y	ground_torque2_z	
2.33332000000000	-5.91043900000000	41.40879600000000	-10.14090500000000	0.27170500000000	0.00000000000000	0.08243900000000	-51.61926600000000	767.72094700000002	-49.17715800000000	0.10723000000000	0.00000000000000	-0.09265900000000	0.00000000000000	-6.17972100000000	0.00000000000000	0.00000000000000	-18.18522900000000	0.00000000000000	
2.33498800000000	-6.29431600000000	48.82134200000000	-11.34583500000000	0.27833900000000	0.00000000000000	0.08350600000000	-52.11388100000000	764.08592999999996	-48.62463000000000	0.10642300000000	0.00000000000000	-0.09254600000000	0.00000000000000	-7.03211400000000	0.00000000000000	0.00000000000000	-18.12288900000000	0.00000000000000	
2.33665900000000	-6.51505900000000	56.40717100000000	-12.42023400000000	0.28438400000000	0.00000000000000	0.08445500000000	-52.61313800000000	760.33310700000004	-48.05418100000000	0.10561400000000	0.00000000000000	-0.09242900000000	0.00000000000000	-7.82634100000000	0.00000000000000	0.00000000000000	-18.06031800000000	0.00000000000000	
2.33832600000000	-6.55590000000000	64.07653999999999	-13.33728600000000	0.28993800000000	0.00000000000000	0.08530700000000	-53.11634000000000	756.46099400000003	-47.46607300000000	0.10480500000000	0.00000000000000	-0.09230900000000	0.00000000000000	-8.54348600000000	0.00000000000000	0.00000000000000	-17.99744800000000	0.00000000000000	
2.33998600000000	-6.40807100000000	71.76035299999999	-14.07968100000000	0.29507500000000	0.00000000000000	0.08607700000000	-53.62273200000000	752.46804899999995	-46.86059200000000	0.10399600000000	0.00000000000000	-0.09218400000000	0.00000000000000	-9.17014700000000	0.00000000000000	0.00000000000000	-17.93420200000000	0.00000000000000	
2.34165800000000	-6.07051700000000	79.41254800000000	-14.63965900000000	0.29985600000000	0.00000000000000	0.08677600000000	-54.13149900000000	748.35267799999997	-46.23803800000000	0.10318800000000	0.00000000000000	-0.09205500000000	0.00000000000000	-9.69869900000000	0.00000000000000	0.00000000000000	-17.87049300000000	0.00000000000000	
2.34333700000000	-5.54902500000000	87.01017899999999	-15.01828200000000	0.30432800000000	0.00000000000000	0.08741400000000	-54.64176300000000	744.11324300000001	-45.59873700000000	0.10238300000000	0.00000000000000	-0.09192100000000	0.00000000000000	-10.12704000000000	0.00000000000000	0.00000000000000	-17.80622300000000	0.00000000000000	
2.34499200000000	-4.85494500000000	94.55157600000000	-15.22409500000000	0.30853200000000	0.00000000000000	0.08800000000000	-55.15258800000000	739.74806300000000	-44.94303400000000	0.10158100000000	0.00000000000000	-0.09178400000000	0.00000000000000	-10.45792500000000	0.00000000000000	0.00000000000000	-17.74128300000000	0.00000000000000	
2.34665200000000	-4.00367400000000	102.05305700000000	-15.27141200000000	0.31249800000000	0.00000000000000	0.08854100000000	-55.66297700000000	735.25542900000005	-44.27129400000000	0.10078500000000	0.00000000000000	-0.09164200000000	0.00000000000000	-10.69802000000000	0.00000000000000	0.00000000000000	-17.67555500000000	0.00000000000000	
2.34832500000000	-3.01307300000000	109.54473500000000	-15.17842100000000	0.31625300000000	0.00000000000000	0.08904000000000	-56.17187400000000	730.63360499999999	-43.58390600000000	0.09999400000000	0.00000000000000	-0.09149500000000	0.00000000000000	-10.85679100000000	0.00000000000000	0.00000000000000	-17.60891200000000	0.00000000000000	
2.34998800000000	-1.90195400000000	117.06590400000000	-14.96530500000000	0.31981900000000	0.00000000000000	0.08950400000000	-56.67816600000000	725.88084500000002	-42.88128100000000	0.09921100000000	0.00000000000000	-0.09134400000000	0.00000000000000	-10.94535700000000	0.00000000000000	0.00000000000000	-17.54121400000000	0.00000000000000	
2.35165300000000	-0.68874900000000	124.66047000000000	-14.65252500000000	0.32321400000000	0.00000000000000	0.08993700000000	-57.18068200000000	720.99539700000003	-42.16385000000000	0.09843500000000	0.00000000000000	-0.09118900000000	0.00000000000000	-10.97540400000000	0.00000000000000	0.00000000000000	-17.47231400000000	0.00000000000000	
2.35332400000000	0.60955300000000	132.37276800000001	-14.25937200000000	0.32645300000000	0.00000000000000	0.09034000000000	-57.67819700000000	715.97551799999997	-41.43207100000000	0.09767000000000	0.00000000000000	-0.09102800000000	0.00000000000000	-10.95823500000000	0.00000000000000	0.00000000000000	-17.40205300000000	0.00000000000000	
2.35499200000000	1.97818900000000	140.24404300000000	-13.80286200000000	0.32954900000000	0.00000000000000	0.09071800000000	-58.16943200000000	710.81948699999998	-40.68642100000000	0.09691500000000	0.00000000000000	-0.09086400000000	0.00000000000000	-10.90401600000000	0.00000000000000	0.00000000000000	-17.33026500000000	0.00000000000000	
2.35665800000000	3.40508200000000	148.30973599999999	-13.29699500000000	0.33251400000000	0.00000000000000	0.09107300000000	-58.65305600000000	705.52561800000001	-39.92740200000000	0.09617200000000	0.00000000000000	-0.09069400000000	0.00000000000000	-10.82123900000000	0.00000000000000	0.00000000000000	-17.25677300000000	0.00000000000000	
2.35832600000000	4.88102900000000	156.59764600000000	-12.75236800000000	0.33535500000000	0.00000000000000	0.09140600000000	-59.12769000000000	700.09227499999997	-39.15554000000000	0.09544200000000	0.00000000000000	-0.09052000000000	0.00000000000000	-10.71640100000000	0.00000000000000	0.00000000000000	-17.18139300000000	0.00000000000000	
2.35999000000000	6.39962600000000	165.12694700000000	-12.17612100000000	0.33808300000000	0.00000000000000	0.09172000000000	-59.59191000000000	694.51788799999997	-38.37138200000000	0.09472600000000	0.00000000000000	-0.09034100000000	0.00000000000000	-10.59389800000000	0.00000000000000	0.00000000000000	-17.10393400000000	0.00000000000000	
2.36165800000000	7.95700400000000	173.90798599999999	-11.57213900000000	0.34070200000000	0.00000000000000	0.09201700000000	-60.04424600000000	688.80096800000001	-37.57550000000000	0.09402600000000	0.00000000000000	-0.09015600000000	0.00000000000000	-10.45609700000000	0.00000000000000	0.00000000000000	-17.02419500000000	0.00000000000000	
2.36332200000000	9.55141600000000	182.94271699999999	-10.94147100000000	0.34322000000000	0.00000000000000	0.09229800000000	-60.48319000000000	682.94012299999997	-36.76848600000000	0.09334200000000	0.00000000000000	-0.08996700000000	0.00000000000000	-10.30354700000000	0.00000000000000	0.00000000000000	-16.94197100000000	0.00000000000000	
2.36499200000000	11.18273700000000	192.22564399999999	-10.28288300000000	0.34564100000000	0.00000000000000	0.09256300000000	-60.90719600000000	676.93407800000000	-35.95095600000000	0.09267500000000	0.00000000000000	-0.08977300000000	0.00000000000000	-10.13529600000000	0.00000000000000	0.00000000000000	-16.85704700000000	0.00000000000000	
2.36666000000000	12.85193700000000	201.74508599999999	-9.59347100000000	0.34797000000000	0.00000000000000	0.09281500000000	-61.31468300000000	670.78168700000003	-35.12354700000000	0.09202800000000	0.00000000000000	-0.08957400000000	0.00000000000000	-9.94926100000000	0.00000000000000	0.00000000000000	-16.76920800000000	0.00000000000000	
2.36832400000000	14.56056400000000	211.48462599999999	-8.86930100000000	0.35021000000000	0.00000000000000	0.09305500000000	-61.70404300000000	664.48194799999999	-34.28691700000000	0.09140000000000	0.00000000000000	-0.08937000000000	0.00000000000000	-9.74262200000000	0.00000000000000	0.00000000000000	-16.67822800000000	0.00000000000000	
2.36998800000000	16.31027000000000	221.42459600000001	-8.10600100000000	0.35236400000000	0.00000000000000	0.09328200000000	-62.07364100000000	658.03402300000005	-33.44174600000000	0.09079300000000	0.00000000000000	-0.08916100000000	0.00000000000000	-9.51220300000000	0.00000000000000	0.00000000000000	-16.58388300000000	0.00000000000000	
2.37165400000000	18.10242200000000	231.54348200000001	-7.29927900000000	0.35443600000000	0.00000000000000	0.09349800000000	-62.42182200000000	651.43724299999997	-32.58873200000000	0.09020700000000	0.00000000000000	-0.08894700000000	0.00000000000000	-9.25481500000000	0.00000000000000	0.00000000000000	-16.48594300000000	0.00000000000000	
2.37332400000000	19.93779900000000	241.81916600000000	-6.44534800000000	0.35642700000000	0.00000000000000	0.09370400000000	-62.74691200000000	644.69112600000005	-31.72859500000000	0.08964400000000	0.00000000000000	-0.08872800000000	0.00000000000000	-8.96753700000000	0.00000000000000	0.00000000000000	-16.38417500000000	0.00000000000000	
2.37499200000000	21.81637500000000	252.22994100000000	-5.54123200000000	0.35834000000000	0.00000000000000	0.09390100000000	-63.04722800000000	637.79538000000002	-30.86207500000000	0.08910500000000	0.00000000000000	-0.08850400000000	0.00000000000000	-8.64793600000000	0.00000000000000	0.00000000000000	-16.27834700000000	0.00000000000000	
2.37665500000000	23.73721500000000	262.75527699999998	-4.58496800000000	0.36017700000000	0.00000000000000	0.09408800000000	-63.32107900000000	630.74991699999998	-29.98992900000000	0.08859000000000	0.00000000000000	-0.08827400000000	0.00000000000000	-8.29421000000000	0.00000000000000	0.00000000000000	-16.16822800000000	0.00000000000000	
2.37831900000000	25.69843300000000	273.37632000000002	-3.57569600000000	0.36193900000000	0.00000000000000	0.09426700000000	-63.56677500000000	623.55485299999998	-29.11293800000000	0.08810100000000	0.00000000000000	-0.08803900000000	0.00000000000000	-7.90527100000000	0.00000000000000	0.00000000000000	-16.05358400000000	0.00000000000000	
2.38001200000000	27.69723800000000	284.07616300000001	-2.51366100000000	0.36362700000000	0.00000000000000	0.09443800000000	-63.78262800000000	616.21051699999998	-28.23189800000000	0.08763700000000	0.00000000000000	-0.08779900000000	0.00000000000000	-7.48075600000000	0.00000000000000	0.00000000000000	-15.93418800000000	0.00000000000000	
2.38166000000000	29.73002300000000	294.83988900000003	-1.40014000000000	0.36524200000000	0.00000000000000	0.09460200000000	-63.96696700000000	608.71745199999998	-27.34762900000000	0.08720000000000	0.00000000000000	-0.08755400000000	0.00000000000000	-7.02099700000000	0.00000000000000	0.00000000000000	-15.80981400000000	0.00000000000000	
2.38331900000000	31.79249800000000	305.65445499999998	-0.23731300000000	0.36678500000000	0.00000000000000	0.09475800000000	-64.11813300000000	601.07641999999998	-26.46096800000000	0.08679100000000	0.00000000000000	-0.08730400000000	0.00000000000000	-6.52694600000000	0.00000000000000	0.00000000000000	-15.68024100000000	0.00000000000000	
2.38499300000000	33.87984000000000	316.50844699999999	0.97189700000000	0.36825800000000	0.00000000000000	0.09490800000000	-64.23450000000000	593.28840800000000	-25.57277200000000	0.08641000000000	0.00000000000000	-0.08704800000000	0.00000000000000	-6.00007800000000	0.00000000000000	0.00000000000000	-15.54525700000000	0.00000000000000	
2.38665500000000	35.98685300000000	327.39175200000000	2.22400500000000	0.36966000000000	0.00000000000000	0.09505100000000	-64.31446900000000	585.35463100000004	-24.68391700000000	0.08605800000000	0.00000000000000	-0.08678700000000	0.00000000000000	-5.44227800000000	0.00000000000000	0.00000000000000	-15.40465500000000	0.00000000000000	
2.38832000000000	38.10811900000000	338.29520200000002	3.51513900000000	0.37099300000000	0.00000000000000	0.09518800000000	-64.35648900000000	577.27654600000005	-23.79529900000000	0.08573600000000	0.00000000000000	-0.08652100000000	0.00000000000000	-4.85572900000000	0.00000000000000	0.00000000000000	-15.25823900000000	0.00000000000000	
2.38999400000000	40.23813700000000	349.21021500000001	4.84120600000000	0.37225600000000	0.00000000000000	0.09532000000000	-64.35905600000000	569.05586300000004	-22.90782800000000	0.08544300000000	0.00000000000000	-0.08625000000000	0.00000000000000	-4.24280000000000	0.00000000000000	0.00000000000000	-15.10582300000000	0.00000000000000	
